<?xml version="1.0" encoding="UTF-8"?>
<svg width="176px" height="28px" viewBox="0 0 176 28" version="1.1" xmlns="http://www.w3.org/2000/svg" xmlns:xlink="http://www.w3.org/1999/xlink">
    <!-- Generator: Sketch 42 (36781) - http://www.bohemiancoding.com/sketch -->
    <title>Group 3</title>
    <desc>Created with Sketch.</desc>
    <defs></defs>
    <g id="Symbols" stroke="none" stroke-width="1" fill="none" fill-rule="evenodd">
        <g id="Logo" transform="translate(-8.000000, -1.000000)" fill="#DE7047">
            <g id="Group-3" transform="translate(8.000000, -1.000000)">
                <g id="Group-2" transform="translate(44.000000, 0.000000)" font-size="26.25" font-family="Montserrat-Bold, Montserrat" letter-spacing="2.5" font-weight="bold">
                    <text id="FOODHA">
                        <tspan x="0" y="26">FOODHA</tspan>
                    </text>
                </g>
                <g id="noun_830379_cc" transform="translate(0.000000, 2.000000)" fill-rule="nonzero">
                    <g id="Layer_1">
                        <g id="Group">
                            <path d="M2.996875,12.0984138 C9.82205729,12.8091552 15.245842,18.1955345 15.9614583,24.9736466 C9.13627604,24.2628448 3.71255208,18.8765259 2.996875,12.0984138 Z M17.5,27.9497931 C18.3054253,27.9497931 18.9583333,27.3013879 18.9583333,26.5015172 C18.9583333,16.9033707 11.1231337,9.1222069 1.45833333,9.1222069 C0.652907986,9.1222069 0,9.77061207 0,10.5704828 C0,20.1686293 7.83519965,27.9497931 17.5,27.9497931 Z" id="Shape"></path>
                            <path d="M17.5,27.9497931 C27.1648003,27.9497931 35,20.1686293 35,10.5704828 C35,9.77061207 34.347092,9.1222069 33.5416667,9.1222069 C23.8768663,9.1222069 16.0416667,16.9033707 16.0416667,26.5015172 C16.0416667,27.3013879 16.6945747,27.9497931 17.5,27.9497931 Z M32.003125,12.0984138 C31.2875087,18.8765259 25.863724,24.2629052 19.0385417,24.9736466 C19.7542188,18.1954741 25.1779427,12.8091552 32.003125,12.0984138 Z" id="Shape"></path>
                            <path d="M20.9160851,18.1461121 C19.6504948,11.3904483 14.3484201,6.00835345 7.43932292,4.70255172 L6.87835069,4.59574138 C6.08592882,4.44487931 5.32078993,4.96167241 5.17082465,5.74899138 L5.06436632,6.30802586 C4.74407986,7.98247414 4.68070313,9.67291379 4.8687066,11.3342672 C4.93457465,11.9165345 5.34734375,12.4020086 5.9143316,12.5642155 C11.3263281,14.1121207 15.3213715,18.7749655 15.9505208,24.3691724 C16.016875,24.9593448 16.4392448,25.4494655 17.0161372,25.6056983 C17.0773872,25.6218707 17.0773872,25.6218707 17.1212587,25.6327931 C17.1737587,25.6461293 17.1737587,25.6461293 17.180625,25.6480603 C18.0531337,25.9040431 18.9461806,25.3128448 19.0437066,24.4145517 C19.2472656,22.5412672 19.8313889,20.7477586 20.7532378,19.1214052 C20.9209462,18.8253534 20.9786111,18.4801207 20.9160851,18.1461121 Z M7.69428819,10.0910431 C7.65898438,9.31325862 7.68985243,8.52992241 7.78780382,7.74706897 C12.902908,9.06083621 16.8069878,13.1161293 17.9474045,18.1849138 C17.7886285,18.4879052 17.6392708,18.7953017 17.4995747,19.1068017 C15.6334549,14.9418621 12.1046528,11.6451034 7.69428819,10.0910431 Z" id="Shape"></path>
                            <path d="M29.8190885,5.74953448 C29.6691233,4.96221552 28.9039844,4.44542241 28.1115625,4.59628448 L27.5485851,4.7034569 C22.7791059,5.60488793 18.7188628,8.45768966 16.2480816,12.5065259 C15.966441,12.9679828 15.9665017,13.54675 16.2482639,14.0081466 C17.0474306,15.3168448 17.6259635,16.7426121 17.9572483,18.2287845 C17.4400868,19.7935862 19.7742708,20.9230603 20.6458073,19.3239224 C22.4297743,16.0506379 25.470217,13.6017241 29.0720573,12.5688017 C29.6381944,12.4064741 30.0503559,11.9217241 30.1165278,11.3402414 C30.3069618,9.66911207 30.2460156,7.97897414 29.9252431,6.30748276 L29.8190885,5.74953448 Z M27.2924653,10.0964138 C24.4584375,11.0983793 21.9572135,12.8361293 20.035434,15.0986983 C19.7929861,14.4858362 19.5142014,13.8867931 19.2007205,13.3047672 C21.1015972,10.5697586 23.9164236,8.59026724 27.2022309,7.74743103 C27.2996962,8.52956034 27.329349,9.31422414 27.2924653,10.0964138 Z" id="Shape"></path>
                            <path d="M18.7427431,14.0077845 C19.7542795,12.3496897 21.1042101,10.9146897 22.7050955,9.80217241 C23.2113802,9.45036207 23.4394271,8.81993966 23.2743316,8.22862069 C22.4997743,5.45432759 21.0252778,2.91984483 18.9364583,0.845431034 L18.5309809,0.442810345 C17.9615017,-0.122801724 17.0381337,-0.122801724 16.4685937,0.442810345 L16.0631771,0.845431034 C13.9712587,2.92292241 12.4949392,5.46362069 11.7220226,8.2430431 C11.557717,8.83387931 11.7857031,9.46351724 12.2913802,9.81502586 C13.8948785,10.9298362 15.2415278,12.3581983 16.2483247,14.0079052 C16.8160417,14.938181 18.1751476,14.9381207 18.7427431,14.0077845 Z M14.8276649,8.08391379 C15.4161632,6.42811207 16.3160156,4.89493103 17.4998785,3.5565431 C18.6811285,4.89185345 19.5795226,6.42038793 20.1682639,8.07172414 C19.1789063,8.8572931 18.2822135,9.75009483 17.494592,10.7315431 C16.7095833,9.75576724 15.8153819,8.86749138 14.8276649,8.08391379 Z" id="Shape"></path>
                        </g>
                    </g>
                </g>
            </g>
        </g>
    </g>
</svg>